<?xml version="1.0" encoding="UTF-8" standalone="no"?>
<!-- Created with Inkscape (http://www.inkscape.org/) -->

<svg
   xmlns:dc="http://purl.org/dc/elements/1.1/"
   xmlns:cc="http://creativecommons.org/ns#"
   xmlns:rdf="http://www.w3.org/1999/02/22-rdf-syntax-ns#"
   xmlns:svg="http://www.w3.org/2000/svg"
   xmlns="http://www.w3.org/2000/svg"
   xmlns:xlink="http://www.w3.org/1999/xlink"
   xmlns:sodipodi="http://sodipodi.sourceforge.net/DTD/sodipodi-0.dtd"
   xmlns:inkscape="http://www.inkscape.org/namespaces/inkscape"
   width="65.25"
   height="40"
   id="svg2"
   sodipodi:version="0.32"
   inkscape:version="0.47 r22583"
   version="1.0"
   sodipodi:docname="gnome-panel-workspace-switcher.svg"
   inkscape:export-filename="/home/lapo/Desktop/xubuntu/pngs/wksp.png"
   inkscape:export-xdpi="90"
   inkscape:export-ydpi="90">
  <sodipodi:namedview
     inkscape:window-height="622"
     inkscape:window-width="1051"
     inkscape:pageshadow="2"
     inkscape:pageopacity="0.0"
     borderopacity="1.0"
     bordercolor="#666666"
     pagecolor="#ffffff"
     id="base"
     showgrid="false"
     inkscape:showpageshadow="false"
     borderlayer="true"
     showborder="false"
     inkscape:zoom="4"
     inkscape:cx="25.09876"
     inkscape:cy="22.543459"
     inkscape:window-x="5"
     inkscape:window-y="49"
     inkscape:current-layer="layer1"
     inkscape:window-maximized="0" />
  <defs
     id="defs4">
    <inkscape:perspective
       sodipodi:type="inkscape:persp3d"
       inkscape:vp_x="0 : 24 : 1"
       inkscape:vp_y="0 : 1000 : 0"
       inkscape:vp_z="48 : 24 : 1"
       inkscape:persp3d-origin="24 : 16 : 1"
       id="perspective52" />
    <linearGradient
       inkscape:collect="always"
       id="linearGradient3104">
      <stop
         style="stop-color:#729fcf"
         offset="0"
         id="stop3106" />
      <stop
         style="stop-color:#3465a4"
         offset="1"
         id="stop3108" />
    </linearGradient>
    <linearGradient
       id="linearGradient1349"
       inkscape:collect="always">
      <stop
         id="stop1351"
         offset="0"
         style="stop-color:#729fcf" />
      <stop
         id="stop1353"
         offset="1"
         style="stop-color:#eeeeec" />
    </linearGradient>
    <linearGradient
       inkscape:collect="always"
       id="linearGradient2181">
      <stop
         style="stop-color:#d3d7cf"
         offset="0"
         id="stop2183" />
      <stop
         style="stop-color:#eeeeec"
         offset="1"
         id="stop2185" />
    </linearGradient>
    <linearGradient
       inkscape:collect="always"
       xlink:href="#linearGradient2181"
       id="linearGradient2187"
       x1="21.25"
       y1="5.8177266"
       x2="29.875"
       y2="77.597641"
       gradientUnits="userSpaceOnUse"
       gradientTransform="matrix(1.4891417,0,0,0.99443831,-1.1144014,2.1223571)" />
    <linearGradient
       inkscape:collect="always"
       xlink:href="#linearGradient1349"
       id="linearGradient1347"
       gradientUnits="userSpaceOnUse"
       gradientTransform="matrix(1.7616353,0,0,1.7497022,21.223741,2.753574)"
       x1="21.25"
       y1="5.8177266"
       x2="29.875"
       y2="77.597641" />
    <linearGradient
       inkscape:collect="always"
       xlink:href="#linearGradient3104"
       id="linearGradient3110"
       x1="14.454059"
       y1="15.161165"
       x2="12.16466"
       y2="12.396894"
       gradientUnits="userSpaceOnUse"
       gradientTransform="matrix(1.7616353,0,0,1.7497022,21.223741,-0.74583045)" />
    <radialGradient
       gradientUnits="userSpaceOnUse"
       gradientTransform="matrix(2,0,0,2,-45,-45)"
       r="1.5"
       fy="45"
       fx="45"
       cy="45"
       cx="45"
       id="radialGradient3429"
       xlink:href="#linearGradient3423"
       inkscape:collect="always" />
    <radialGradient
       gradientUnits="userSpaceOnUse"
       gradientTransform="matrix(0,-2,2,0,-87,51)"
       r="1.5"
       fy="45"
       fx="3"
       cy="45"
       cx="3"
       id="radialGradient3421"
       xlink:href="#linearGradient3415"
       inkscape:collect="always" />
    <linearGradient
       gradientUnits="userSpaceOnUse"
       y2="41.999989"
       x2="19.01943"
       y1="48.000343"
       x1="19.01943"
       id="linearGradient3411"
       xlink:href="#linearGradient3405"
       inkscape:collect="always" />
    <linearGradient
       id="linearGradient3405">
      <stop
         id="stop3407"
         offset="0"
         style="stop-color:black;stop-opacity:0;" />
      <stop
         style="stop-color:black;stop-opacity:1;"
         offset="0.5"
         id="stop3413" />
      <stop
         id="stop3409"
         offset="1"
         style="stop-color:black;stop-opacity:0;" />
    </linearGradient>
    <linearGradient
       id="linearGradient3415"
       inkscape:collect="always">
      <stop
         id="stop3417"
         offset="0"
         style="stop-color:black;stop-opacity:1;" />
      <stop
         id="stop3419"
         offset="1"
         style="stop-color:black;stop-opacity:0;" />
    </linearGradient>
    <linearGradient
       id="linearGradient3423"
       inkscape:collect="always">
      <stop
         id="stop3425"
         offset="0"
         style="stop-color:black;stop-opacity:1;" />
      <stop
         id="stop3427"
         offset="1"
         style="stop-color:black;stop-opacity:0;" />
    </linearGradient>
    <inkscape:perspective
       id="perspective2905"
       inkscape:persp3d-origin="0.5 : 0.33333333 : 1"
       inkscape:vp_z="1 : 0.5 : 1"
       inkscape:vp_y="0 : 1000 : 0"
       inkscape:vp_x="0 : 0.5 : 1"
       sodipodi:type="inkscape:persp3d" />
    <radialGradient
       inkscape:collect="always"
       xlink:href="#linearGradient3414"
       id="radialGradient5964"
       gradientUnits="userSpaceOnUse"
       gradientTransform="matrix(2,0,0,2,-13,-129)"
       cx="3"
       cy="43"
       fx="3"
       fy="43"
       r="2" />
    <linearGradient
       inkscape:collect="always"
       id="linearGradient3414">
      <stop
         style="stop-color:black;stop-opacity:1;"
         offset="0"
         id="stop3416" />
      <stop
         style="stop-color:black;stop-opacity:0;"
         offset="1"
         id="stop3418" />
    </linearGradient>
    <radialGradient
       inkscape:collect="always"
       xlink:href="#linearGradient3414"
       id="radialGradient5966"
       gradientUnits="userSpaceOnUse"
       gradientTransform="matrix(2,0,0,2,35,-43)"
       cx="3"
       cy="43"
       fx="3"
       fy="43"
       r="2" />
    <linearGradient
       inkscape:collect="always"
       xlink:href="#linearGradient3428"
       id="linearGradient5968"
       gradientUnits="userSpaceOnUse"
       x1="11.507806"
       y1="39"
       x2="11.507806"
       y2="47.015659" />
    <linearGradient
       id="linearGradient3428">
      <stop
         style="stop-color:black;stop-opacity:0;"
         offset="0"
         id="stop3430" />
      <stop
         id="stop3436"
         offset="0.5"
         style="stop-color:black;stop-opacity:1;" />
      <stop
         style="stop-color:black;stop-opacity:0;"
         offset="1"
         id="stop3432" />
    </linearGradient>
    <radialGradient
       inkscape:collect="always"
       xlink:href="#linearGradient5921"
       id="radialGradient5970"
       gradientUnits="userSpaceOnUse"
       gradientTransform="matrix(2.2047396,0,-2.6314022e-6,1.180426,-93.520943,-2.0900199)"
       cx="15.821514"
       cy="10.605315"
       fx="15.821514"
       fy="10.605315"
       r="12.955806" />
    <linearGradient
       inkscape:collect="always"
       id="linearGradient5921">
      <stop
         style="stop-color:#ffffff;stop-opacity:1;"
         offset="0"
         id="stop5923" />
      <stop
         style="stop-color:#ffffff;stop-opacity:0;"
         offset="1"
         id="stop5925" />
    </linearGradient>
    <inkscape:perspective
       id="perspective3234"
       inkscape:persp3d-origin="0.5 : 0.33333333 : 1"
       inkscape:vp_z="1 : 0.5 : 1"
       inkscape:vp_y="0 : 1000 : 0"
       inkscape:vp_x="0 : 0.5 : 1"
       sodipodi:type="inkscape:persp3d" />
  </defs>
  <sodipodi:namedview
     id="namedview30"
     pagecolor="#ffffff"
     bordercolor="#666666"
     borderopacity="1.0"
     inkscape:pageopacity="0.0"
     inkscape:pageshadow="2"
     inkscape:zoom="1"
     inkscape:cx="25.368402"
     inkscape:cy="29.804133"
     inkscape:document-units="px"
     inkscape:current-layer="layer1"
     showgrid="false"
     inkscape:window-width="965"
     inkscape:window-height="763"
     inkscape:window-x="176"
     inkscape:window-y="103"
     fill="#729fcf"
     stroke="#3465a4"
     inkscape:showpageshadow="false"
     showguides="false"
     inkscape:guide-bbox="true"
     inkscape:grid-points="true"
     inkscape:grid-bbox="false"
     showborder="false">
    <sodipodi:guide
       orientation="vertical"
       position="24.041631"
       id="guide2191" />
    <sodipodi:guide
       orientation="horizontal"
       position="25.986174"
       id="guide2203" />
    <inkscape:grid
       id="GridFromPre046Settings"
       type="xygrid"
       originx="0px"
       originy="0px"
       spacingx="0.5px"
       spacingy="0.5px"
       color="#0000ff"
       empcolor="#0000ff"
       opacity="0.2"
       empopacity="0.4"
       empspacing="2" />
  </sodipodi:namedview>
  <metadata
     id="metadata7">
    <rdf:RDF>
      <cc:Work
         rdf:about="">
        <dc:format>image/svg+xml</dc:format>
        <dc:type
           rdf:resource="http://purl.org/dc/dcmitype/StillImage" />
        <dc:creator>
          <cc:Agent>
            <dc:title>Lapo Calamandrei</dc:title>
          </cc:Agent>
        </dc:creator>
        <dc:title></dc:title>
        <dc:subject>
          <rdf:Bag>
            <rdf:li>workspace</rdf:li>
          </rdf:Bag>
        </dc:subject>
        <cc:license
           rdf:resource="http://creativecommons.org/licenses/GPL/2.0/" />
      </cc:Work>
      <cc:License
         rdf:about="http://creativecommons.org/licenses/GPL/2.0/">
        <cc:permits
           rdf:resource="http://web.resource.org/cc/Reproduction" />
        <cc:permits
           rdf:resource="http://web.resource.org/cc/Distribution" />
        <cc:requires
           rdf:resource="http://web.resource.org/cc/Notice" />
        <cc:permits
           rdf:resource="http://web.resource.org/cc/DerivativeWorks" />
        <cc:requires
           rdf:resource="http://web.resource.org/cc/ShareAlike" />
        <cc:requires
           rdf:resource="http://web.resource.org/cc/SourceCode" />
      </cc:License>
    </rdf:RDF>
  </metadata>
  <g
     inkscape:label="Livello 1"
     inkscape:groupmode="layer"
     id="layer1"
     transform="translate(-1.9999993,-3.9999999)">
    <rect
       style="color:#000000;fill:url(#linearGradient2187);fill-opacity:1;fill-rule:nonzero;stroke:#babdb6;stroke-width:1.21690571;stroke-linecap:round;stroke-linejoin:miter;stroke-miterlimit:4;stroke-opacity:1;stroke-dasharray:none;stroke-dashoffset:0;marker:none;visibility:visible;display:inline;overflow:visible"
       id="rect1304"
       width="64.033096"
       height="38.783092"
       x="2.6084528"
       y="4.6084528"
       rx="2.2337127"
       ry="1.4916575" />
    <rect
       style="color:#000000;fill:none;stroke:#ffffff;stroke-width:1.21894038;stroke-linecap:round;stroke-linejoin:miter;stroke-miterlimit:4;stroke-opacity:1;stroke-dasharray:none;stroke-dashoffset:0;marker:none;visibility:visible;display:inline;overflow:visible"
       id="rect2179"
       width="61.281059"
       height="36.781059"
       x="3.6094701"
       y="5.6094704"
       rx="0.74733001"
       ry="0.49704134" />
    <path
       style="color:#000000;fill:url(#linearGradient1347);fill-opacity:1;fill-rule:nonzero;stroke:url(#linearGradient3110);stroke-width:1.75565863;stroke-linecap:round;stroke-linejoin:miter;stroke-miterlimit:4;stroke-opacity:1;stroke-dashoffset:0;marker:none;visibility:visible;display:inline;overflow:visible"
       d="m 28.270282,7.1278293 34.351889,0 0,33.2443417 -36.994342,0 0,-30.6197884 c 0,-1.4540025 1.178534,-2.6245533 2.642453,-2.6245533 z"
       id="rect1344"
       sodipodi:nodetypes="cccccc" />
    <path
       style="fill:#ffffff;fill-opacity:1;fill-rule:evenodd;stroke:#eeeeec;stroke-width:1;stroke-linecap:round;stroke-linejoin:miter;stroke-miterlimit:4;stroke-opacity:1;stroke-dasharray:none"
       d="m 24.5,5.5 0,37"
       id="path2207" />
    <g
       id="g2939"
       transform="matrix(1.4411768,0,0,1.733333,-8.242661,-6.03333)">
      <rect
         y="9.75"
         x="28.250011"
         height="7.0000014"
         width="9.9999895"
         id="rect1906"
         style="fill:#d3d7cf;fill-opacity:1;stroke:#204a87;stroke-width:0.99999934;stroke-linecap:round;stroke-linejoin:round;stroke-miterlimit:4;stroke-opacity:1;stroke-dasharray:none" />
      <rect
         y="18.75001"
         x="29.25"
         height="4.9999981"
         width="7.0000019"
         id="rect1890"
         style="fill:#d3d7cf;fill-opacity:1;stroke:#204a87;stroke-width:0.99999946;stroke-linecap:round;stroke-linejoin:round;stroke-miterlimit:4;stroke-opacity:1;stroke-dasharray:none" />
      <rect
         y="13.750001"
         x="32.25"
         height="8"
         width="12"
         id="rect2796"
         style="fill:#3465a4;fill-opacity:1;stroke:#d3d7cf;stroke-width:1;stroke-linecap:round;stroke-linejoin:round;stroke-miterlimit:4;stroke-opacity:1;stroke-dasharray:none" />
    </g>
    <g
       transform="matrix(0.61875002,0,0,0.46458335,45.597229,4.9167193)"
       id="g2877">
      <g
         id="g5928"
         transform="matrix(0.952381,0,0,0.875,-73.31731,2.641702)"
         style="opacity:0.18478262">
        <rect
           transform="scale(-1,-1)"
           y="-47"
           x="-7"
           height="8"
           width="4"
           id="rect5930"
           style="color:#000000;fill:url(#radialGradient5964);fill-opacity:1;fill-rule:nonzero;stroke:none;stroke-width:1;marker:none;visibility:visible;display:inline;overflow:visible" />
        <rect
           y="39"
           x="41"
           height="8"
           width="4"
           id="rect5932"
           style="color:#000000;fill:url(#radialGradient5966);fill-opacity:1;fill-rule:nonzero;stroke:none;stroke-width:1;marker:none;visibility:visible;display:inline;overflow:visible" />
        <rect
           y="39"
           x="7"
           height="8"
           width="34"
           id="rect5934"
           style="color:#000000;fill:url(#linearGradient5968);fill-opacity:1;fill-rule:nonzero;stroke:none;stroke-width:1;marker:none;visibility:visible;display:inline;overflow:visible" />
      </g>
      <rect
         style="fill:#eeeeec;fill-opacity:1;stroke:#888a85;stroke-width:0.99999994;stroke-linecap:round;stroke-linejoin:round;stroke-miterlimit:4;stroke-opacity:1;stroke-dasharray:none;stroke-dashoffset:0"
         id="rect5936"
         width="33"
         height="39"
         x="-66.960167"
         y="2.2667019"
         rx="0.57070702"
         ry="0.57070708" />
      <rect
         style="fill:#ad7fa8;fill-opacity:1;stroke:#75507b;stroke-width:0.99999994;stroke-linecap:round;stroke-linejoin:round;stroke-miterlimit:4;stroke-opacity:1;stroke-dasharray:none;stroke-dashoffset:0"
         id="rect5938"
         width="27"
         height="33"
         x="-63.960167"
         y="5.2667022"
         rx="0.57070702"
         ry="0.57070702" />
      <path
         style="opacity:0.36413042;fill:url(#radialGradient5970);fill-opacity:1;fill-rule:evenodd;stroke:none"
         d="m -63.460167,20.589503 c 0,0 4.104792,-1.321178 12.42176,-1.48394 8.22858,-0.162762 13.489852,-5.481901 13.489852,-5.481901 l 0,-7.85696 -25.911612,0 0,14.822801 z"
         id="path5940"
         sodipodi:nodetypes="czcccc" />
      <rect
         style="opacity:0.52173911;fill:none;stroke:#ffffff;stroke-width:0.99999994;stroke-linecap:round;stroke-linejoin:round;stroke-miterlimit:4;stroke-opacity:1;stroke-dasharray:none;stroke-dashoffset:0"
         id="rect5942"
         width="30.999998"
         height="37"
         x="-65.960167"
         y="3.2667015"
         rx="0"
         ry="0" />
      <path
         style="fill:none;stroke:#c09dbd;stroke-width:1px;stroke-linecap:butt;stroke-linejoin:miter;stroke-opacity:1"
         d="m -63.667274,23.87689 c 10.899012,2.319305 22.872123,-2.205066 26.323224,-4.116971"
         id="path5944"
         sodipodi:nodetypes="cc" />
      <path
         style="opacity:0.39130435;fill:none;stroke:#75507b;stroke-width:1px;stroke-linecap:butt;stroke-linejoin:miter;stroke-opacity:1"
         d="m -54.459089,34.055915 c 7.412838,2.556981 16.474409,-2.849111 17.58731,-6.231155"
         id="path5946"
         sodipodi:nodetypes="cc" />
      <path
         style="fill:#2e3436;fill-opacity:1;fill-rule:evenodd;stroke:none"
         d="m -36.618814,10.328567 c -4.883055,-0.627197 -8.07337,0.429484 -10.80424,1.865582 2.774826,-3.534507 6.239045,-4.639801 10.80424,-1.865582 z"
         id="path5948"
         sodipodi:nodetypes="ccc" />
      <path
         sodipodi:nodetypes="ccc"
         id="path5950"
         d="M -65.955228,13.441545 C -61.312267,11.804318 -57.971301,12.168495 -55,13 c -3.454315,-2.874041 -7.07329,-3.228312 -10.955228,0.441545 z"
         style="fill:#2e3436;fill-opacity:1;fill-rule:evenodd;stroke:none" />
      <path
         style="fill:#eeeeec;fill-rule:evenodd;stroke:#555753;stroke-width:1px;stroke-linecap:butt;stroke-linejoin:miter;stroke-opacity:1"
         d="m -36.960167,20.766702 c -10.511074,5.301513 -20.534635,5.122221 -27,4.09375 l 0,5.03125 c 10.472337,7.497502 19.880888,4.014258 27,-1.9375 l 0,-7.1875 z"
         id="path5952" />
      <path
         sodipodi:nodetypes="cccc"
         id="path5954"
         d="m -48.881582,25.031867 -1,0.218006 1.598192,7.993543 -0.598192,-8.211549 z"
         style="fill:#888a85;fill-opacity:0.56306308;fill-rule:evenodd;stroke:none" />
      <path
         style="fill:#888a85;fill-opacity:0.56306308;fill-rule:evenodd;stroke:none"
         d="m -44.91321,24.231118 -0.969758,0.307777 2.422801,6.629471 -1.453043,-6.937248 z"
         id="path5956"
         sodipodi:nodetypes="cccc" />
      <path
         sodipodi:nodetypes="cccc"
         id="path5958"
         d="m -40.500632,22.873076 -0.959535,0.239049 1.953586,6.538461 -0.994051,-6.77751 z"
         style="fill:#888a85;fill-opacity:0.56306308;fill-rule:evenodd;stroke:none" />
      <path
         sodipodi:nodetypes="cccc"
         id="path5960"
         d="m -55.47606,25.766702 1.015893,0.05935 -0.690549,7.462912 -0.325344,-7.522259 z"
         style="fill:#888a85;fill-opacity:0.56306308;fill-rule:evenodd;stroke:none" />
      <path
         style="fill:#888a85;fill-opacity:0.56306308;fill-rule:evenodd;stroke:none"
         d="m -60.301659,25.766702 0.841492,0.152667 -1.298554,5.847333 0.457062,-6 z"
         id="path5962"
         sodipodi:nodetypes="cccc" />
    </g>
    <g
       id="g240"
       transform="matrix(0.42239799,0,0,0.42239799,-19.824726,20.442783)">
      <polygon
         id="polygon242"
         points="70.088,35.974 69.42,9.075 83.385,32.074 "
         style="fill:#e2001a" />
      <path
         id="path244"
         d="m 46.432,126.82 c 0.039,0.254 0.232,0.454 0.482,0.5 1.025,0.188 2.049,0.275 3.043,0.277 2.49,-0.004 4.805,-0.545 6.547,-1.442 0.973,-0.504 1.797,-1.132 2.334,-1.876 0.717,1.874 1.893,3.483 3.543,5.129 0.006,0.005 0.016,0.009 0.021,0.013 0.037,0.034 0.078,0.058 0.123,0.081 0.023,0.014 0.045,0.031 0.068,0.04 0.006,0.001 0.009,0.005 0.015,0.007 l 2.571,0.903 c 0.064,0.021 0.13,0.033 0.197,0.033 0.013,0 0.024,0 0.037,0 l 6.879,-0.401 c 0.237,-0.014 0.432,-0.169 0.518,-0.384 l 4.27,0.382 0.17,-0.008 6.479,-1.27 c 0.291,-0.057 0.496,-0.316 0.485,-0.611 -0.011,-0.295 -0.233,-0.54 -0.526,-0.577 l -5.049,-0.624 c 1.012,-1.891 1.223,-3.309 1.211,-5.323 0,-1.089 -0.051,-2.372 -0.049,-4.077 h -0.002 c 0,-0.026 -0.004,-0.051 -0.007,-0.075 2.536,-3.403 4.771,-7.881 6.662,-12.984 4.168,-11.263 6.647,-25.564 6.648,-37.942 -0.022,-11.318 -2.019,-21.042 -7.03,-25.437 0.189,-2.241 1.684,-4.306 3.816,-5.856 2.213,-1.611 5.08,-2.627 7.605,-2.707 0.266,-0.009 0.496,-0.193 0.563,-0.452 0.066,-0.258 -0.047,-0.53 -0.275,-0.666 -1.412,-0.836 -2.977,-1.101 -4.49,-1.101 -2.944,0.008 -5.846,0.984 -7.238,0.965 -1.432,0.003 -3.389,-0.303 -5.531,-0.304 -1.281,0 -2.635,0.111 -3.994,0.476 -5.176,1.385 -8.158,5.171 -9.762,8.698 -6.982,6.988 -6.83,10.929 -9.124,16.502 -2.175,5.291 -6.564,14.447 -6.558,29.29 0.006,6.335 3.355,26.457 3.912,30.935 0.027,0.222 0.041,0.437 0.041,0.649 0.002,1.948 -1.135,3.618 -2.789,5.069 -1.646,1.445 -3.762,2.617 -5.506,3.546 -0.225,0.12 -0.351,0.368 -0.31,0.622 z m 32.214,-5.15 c -0.01,1.729 -0.111,2.748 -0.77,4.151 -0.004,-0.017 -0.011,-0.033 -0.016,-0.05 -0.051,-0.156 -0.103,-0.308 -0.158,-0.45 0,-0.003 -0.002,-0.005 -0.002,-0.009 -0.059,-0.149 -0.118,-0.29 -0.181,-0.427 -0.013,-0.026 -0.024,-0.051 -0.036,-0.077 -0.052,-0.109 -0.105,-0.214 -0.162,-0.314 -0.014,-0.024 -0.025,-0.048 -0.039,-0.072 -0.068,-0.118 -0.138,-0.231 -0.211,-0.337 -0.506,-0.743 -1.225,-1.179 -1.984,-1.172 -0.15,0.007 -0.299,0.028 -0.444,0.057 -0.026,0.005 -0.052,0.011 -0.077,0.016 -0.141,0.033 -0.279,0.076 -0.415,0.13 -0.022,0.007 -0.044,0.018 -0.064,0.028 -0.13,0.054 -0.259,0.116 -0.384,0.188 -0.013,0.007 -0.024,0.012 -0.036,0.02 -0.132,0.078 -0.259,0.165 -0.386,0.26 -0.026,0.019 -0.053,0.039 -0.078,0.059 -0.123,0.096 -0.246,0.198 -0.365,0.309 -0.018,0.018 -0.035,0.037 -0.053,0.052 -0.108,0.104 -0.217,0.214 -0.322,0.329 -0.021,0.024 -0.043,0.047 -0.064,0.071 -0.113,0.125 -0.222,0.257 -0.331,0.393 -0.028,0.034 -0.056,0.071 -0.083,0.108 -0.108,0.139 -0.216,0.279 -0.32,0.428 -0.004,0.004 -0.006,0.007 -0.009,0.012 -0.26,-0.491 -0.587,-0.922 -0.931,-1.281 2.871,-0.476 5.514,-2.327 7.883,-5.089 0.015,1.052 0.038,1.922 0.038,2.667 z m -10.423,4.134 c 0.239,-0.27 0.459,-0.51 0.653,-0.705 0.197,-0.206 0.326,-0.435 0.417,-0.676 0.176,0.125 0.375,0.295 0.572,0.503 0.469,0.497 0.908,1.193 1.073,1.891 0.004,0.009 0.009,0.017 0.012,0.027 0.009,0.03 0.017,0.059 0.029,0.089 l 0.765,1.62 -3.35,-1.676 -0.171,-1.073 z M 57.408,100.658 c 0.281,0.125 0.595,0.167 0.956,0.17 5.165,0.013 8.259,-3.592 9.91,-8.313 1.682,-4.742 2.106,-10.735 2.108,-16.077 0,-5.902 -0.532,-11.053 -0.529,-12.616 -0.014,-1.515 1.014,-4.647 2.466,-7.885 1.449,-3.25 3.315,-6.68 4.925,-9.02 1.047,-1.557 2.088,-2.64 2.506,-2.778 0.242,-0.098 0.391,-0.34 0.371,-0.599 -0.018,-0.259 -0.201,-0.476 -0.453,-0.541 -1.723,-0.433 -2.896,-0.604 -3.896,-0.604 -1.318,10e-4 -2.262,0.297 -3.627,0.601 -0.612,0.138 -1.227,0.211 -1.789,0.211 -0.807,0.002 -1.49,-0.161 -1.916,-0.449 -0.42,-0.296 -0.65,-0.652 -0.666,-1.368 0,-0.162 0.021,-0.348 0.055,-0.545 1.725,-1.756 3.705,-3.544 5.197,-3.492 0.512,0 1.002,0.057 1.386,0.25 0.382,0.194 0.704,0.491 0.956,1.159 0.466,1.288 1.219,2.257 2.246,2.86 1.023,0.604 2.272,0.845 3.731,0.845 1.157,0 2.465,-0.156 3.929,-0.417 4.502,3.846 6.65,13.351 6.627,24.542 0.02,18.322 -5.58,41.146 -13.835,51.19 -2.661,3.249 -5.534,5.109 -8.507,5.221 0.035,-0.358 0.066,-0.719 0.111,-1.085 0.146,-1.169 0.429,-2.229 1.402,-2.915 0.654,-0.465 1.697,-0.808 3.39,-0.808 0.333,0 0.602,-0.27 0.602,-0.603 0,-0.332 -0.269,-0.601 -0.602,-0.601 -2.76,-0.016 -4.366,0.88 -5.169,2.167 -0.794,1.27 -0.82,2.727 -0.933,3.785 -0.016,0.188 -0.038,0.361 -0.063,0.516 -10e-4,0.006 -10e-4,0.01 -0.004,0.016 l 0,0 c -0.001,0.007 -0.003,0.014 -0.003,0.021 -0.072,0.412 -0.174,0.688 -0.266,0.753 -0.282,0.281 -0.578,0.615 -0.892,0.969 l -0.001,10e-4 c 0,0 0,0.002 -0.002,0.002 -1.176,1.37 -2.707,2.971 -4.03,3.142 -0.097,-0.163 -0.233,-0.419 -0.368,-0.741 -0.242,-0.548 -0.528,-1.302 -0.836,-2.217 -0.619,-1.828 -1.33,-4.306 -2.002,-7.167 -1.199,-5.117 -2.273,-11.47 -2.485,-17.58 z m -0.037,-2.657 c 0.043,-5.335 0.865,-10.298 2.879,-13.846 0.529,2.604 0.96,5.23 0.957,7.396 0.008,2.245 -0.49,3.839 -1.488,4.422 -0.775,0.478 -1.5,1.073 -2.053,1.677 -0.103,0.119 -0.203,0.235 -0.295,0.351 z" />
    </g>
  </g>
</svg>
